HIERARCHY
ROOT Hips
{
	OFFSET 0.000000 0.000000 0.000000
	CHANNELS 6 Xposition Yposition Zposition Zrotation Yrotation Xrotation 
	JOINT LowerBack
	{
		OFFSET 0.000000 0.000000 0.000000
		CHANNELS 3 Zrotation Yrotation Xrotation
		JOINT Spine
		{
			OFFSET 0.028270 2.035590 -0.193380
			CHANNELS 3 Zrotation Yrotation Xrotation
			JOINT Spine1
			{
				OFFSET 0.056720 2.048850 -0.042750
				CHANNELS 3 Zrotation Yrotation Xrotation
				JOINT Neck
				{
					OFFSET 0.000000 0.000000 0.000000
					CHANNELS 3 Zrotation Yrotation Xrotation
					JOINT Neck1
					{
						OFFSET -0.054170 1.746240 0.172020
						CHANNELS 3 Zrotation Yrotation Xrotation
						JOINT Head
						{
							OFFSET 0.104070 1.761360 -0.123970
							CHANNELS 3 Zrotation Yrotation Xrotation
							End Site
							{
								OFFSET 0.000000 0.000000 0.000000
							}
						}
					}
				}
				JOINT LeftShoulder
				{
					OFFSET 0.000000 0.000000 0.000000
					CHANNELS 3 Zrotation Yrotation Xrotation
					JOINT LeftArm
					{
						OFFSET 3.362410 1.200890 -0.311210
						CHANNELS 3 Zrotation Yrotation Xrotation
						JOINT LeftForeArm
						{
							OFFSET 4.983000 -0.000000 -0.000000
							CHANNELS 3 Zrotation Yrotation Xrotation
							JOINT LeftHand
							{
								OFFSET 3.483560 -0.000000 -0.000000
								CHANNELS 3 Zrotation Yrotation Xrotation
								JOINT LeftFingerBase
								{
									OFFSET 0.000000 0.000000 0.000000
									CHANNELS 3 Zrotation Yrotation Xrotation
									JOINT LeftHandIndex1
									{
										OFFSET 0.715260 -0.000000 -0.000000
										CHANNELS 3 Zrotation Yrotation Xrotation
										End Site
										{
											OFFSET 0.000000 0.000000 0.000000
										}
									}
								}
								JOINT LThumb
								{
									OFFSET 0.000000 0.000000 0.000000
									CHANNELS 3 Zrotation Yrotation Xrotation
									End Site
									{
										OFFSET 0.000000 0.000000 0.000000
									}
								}
							}
						}
					}
				}
				JOINT RightShoulder
				{
					OFFSET 0.000000 0.000000 0.000000
					CHANNELS 3 Zrotation Yrotation Xrotation
					JOINT RightArm
					{
						OFFSET -3.136600 1.374050 -0.404650
						CHANNELS 3 Zrotation Yrotation Xrotation
						JOINT RightForeArm
						{
							OFFSET -5.241900 -0.000000 -0.000000
							CHANNELS 3 Zrotation Yrotation Xrotation
							JOINT RightHand
							{
								OFFSET -3.444170 -0.000000 -0.000000
								CHANNELS 3 Zrotation Yrotation Xrotation
								JOINT RightFingerBase
								{
									OFFSET 0.000000 0.000000 0.000000
									CHANNELS 3 Zrotation Yrotation Xrotation
									JOINT RightHandIndex1
									{
										OFFSET -0.622530 -0.000000 -0.000000
										CHANNELS 3 Zrotation Yrotation Xrotation
										End Site
										{
											OFFSET 0.000000 0.000000 0.000000
										}
									}
								}
								JOINT RThumb
								{
									OFFSET 0.000000 0.000000 0.000000
									CHANNELS 3 Zrotation Yrotation Xrotation
									End Site
									{
										OFFSET 0.000000 0.000000 0.000000
									}
								}
							}
						}
					}
				}
			}
		}
	}
}
}
MOTION
Frames: 18
Frame Time: 0.008333
3.189988 17.198282 0.866360 -170.709769 -85.092001 -175.607443 1.199681 -1.346218 -5.206814 -0.197246 -1.542670 -3.623943 -5.816143 -1.329935 -0.057291 7.965559 -8.233882 -1.806966 -3.894922 -0.353876 1.594239 0.000000 0.000000 0.000000 12.806913 9.522351 -2.887663 -88.773224 -18.588067 18.980839 -178.292326 -50.598774 179.975385 1.388712 -7.698557 -0.098253 0.054005 1.206468 -0.000000 0.000000 0.000000 0.000000 0.000000 0.000000 0.000000 0.755705 -5.881811 -4.216677 86.365573 23.192940 26.384911 -179.377512 59.070581 179.884948 -7.535638 13.274659 -0.956865 0.067287 -1.074025 -0.000000 0.000000 0.000000 0.000000 0.000000 0.000000 0.000000 
3.190189 17.198505 0.865720 -170.573840 -85.426985 -175.769513 1.126124 -1.330563 -5.243241 -0.197124 -1.518323 -3.658056 -5.718772 -1.313641 -0.189996 7.867009 -7.945123 -1.582431 -3.894025 -0.355828 1.655626 0.000000 0.000000 0.000000 12.684946 9.343088 -2.844538 -88.827061 -18.594333 19.159012 -178.328798 -50.723313 179.974491 1.423281 -7.715337 -0.101079 0.054646 1.207384 -0.000000 0.000000 0.000000 0.000000 0.000000 0.000000 0.000000 0.807203 -5.585312 -4.250371 85.890719 23.877514 25.894944 -179.397716 59.639175 179.885241 -7.565963 13.128618 -0.950028 0.066453 -1.063039 -0.000000 0.000000 0.000000 0.000000 0.000000 0.000000 0.000000 
3.190875 17.198798 0.864997 -170.403786 -85.762494 -175.976080 1.046838 -1.308755 -5.276023 -0.196838 -1.486797 -3.694107 -5.608098 -1.290567 -0.333171 7.753880 -7.630180 -1.339660 -3.892407 -0.357906 1.721932 0.000000 0.000000 0.000000 12.547796 9.150017 -2.796561 -88.870843 -18.598243 19.340934 -178.367330 -50.845944 179.973694 1.446278 -7.733472 -0.103019 0.056108 1.208344 -0.000000 0.000000 0.000000 0.000000 0.000000 0.000000 0.000000 0.866361 -5.256233 -4.283124 85.352003 24.666759 25.361673 -179.422282 60.293313 179.886038 -7.574427 12.901043 -0.934507 0.064928 -1.048765 -0.000000 0.000000 0.000000 0.000000 0.000000 0.000000 0.000000 
3.192114 17.199160 0.864142 -170.205983 -86.098953 -176.220793 0.961225 -1.280233 -5.306033 -0.196577 -1.447494 -3.731608 -5.484422 -1.259896 -0.483872 7.625519 -7.288522 -1.081560 -3.889157 -0.360021 1.792337 0.000000 0.000000 0.000000 12.390095 8.955145 -2.744879 -88.902621 -18.616927 19.536534 -178.405150 -50.978085 179.973012 1.459274 -7.752469 -0.104172 0.058061 1.209343 -0.000000 0.000000 0.000000 0.000000 0.000000 0.000000 0.000000 0.934019 -4.893000 -4.314137 84.744241 25.569770 24.784218 -179.450840 61.044839 179.887499 -7.546098 12.583171 -0.908005 0.062167 -1.030954 -0.000000 0.000000 0.000000 0.000000 0.000000 0.000000 0.000000 
3.193943 17.199576 0.863159 -169.977710 -86.435935 -176.506588 0.868776 -1.245090 -5.333555 -0.195992 -1.400388 -3.770591 -5.345091 -1.221627 -0.641738 7.480045 -6.925091 -0.809758 -3.884300 -0.362177 1.866454 0.000000 0.000000 0.000000 12.213353 8.750518 -2.690587 -88.923934 -18.645739 19.739959 -178.444453 -51.118346 179.972422 1.462227 -7.770779 -0.104541 0.060665 1.210227 -0.000000 0.000000 0.000000 0.000000 0.000000 0.000000 0.000000 1.013518 -4.499826 -4.339929 84.056176 26.603782 24.170746 -179.483873 61.911278 179.889707 -7.476902 12.163478 -0.869823 0.058153 -1.009330 -0.000000 0.000000 0.000000 0.000000 0.000000 0.000000 0.000000 
3.196429 17.200011 0.862009 -169.734994 -86.773237 -176.818121 0.768843 -1.203073 -5.358226 -0.195102 -1.345119 -3.810397 -5.189619 -1.175223 -0.803963 7.316281 -6.541714 -0.527753 -3.877210 -0.364303 1.943314 0.000000 0.000000 0.000000 12.014266 8.542804 -2.635379 -88.934043 -18.696068 19.957453 -178.484269 -51.276316 179.971890 1.459202 -7.787305 -0.104424 0.063586 1.210895 -0.000000 0.000000 0.000000 0.000000 0.000000 0.000000 0.000000 1.107120 -4.077736 -4.357948 83.276837 27.780764 23.523481 -179.520155 62.911719 179.892715 -7.361247 11.641893 -0.819860 0.052674 -0.983970 -0.000000 0.000000 0.000000 0.000000 0.000000 0.000000 0.000000 
3.199546 17.200506 0.860758 -169.429601 -87.108329 -177.201076 0.663242 -1.154239 -5.382881 -0.192871 -1.281851 -3.852709 -5.013733 -1.121079 -0.975140 7.132034 -6.141542 -0.233882 -3.868761 -0.366513 2.023554 0.000000 0.000000 0.000000 11.803545 8.300415 -2.580140 -88.937925 -18.736585 20.166269 -178.532795 -51.437445 179.971337 1.450688 -7.798222 -0.103625 0.067419 1.210971 -0.000000 0.000000 0.000000 0.000000 0.000000 0.000000 0.000000 1.218109 -3.628864 -4.360848 82.385855 29.113577 22.850449 -179.558300 64.065861 179.896400 -7.211613 11.014316 -0.760411 0.046213 -0.954989 -0.000000 0.000000 0.000000 0.000000 0.000000 0.000000 0.000000 
3.203391 17.201002 0.859348 -169.138351 -87.441586 -177.581458 0.550567 -1.097787 -5.403633 -0.190123 -1.209631 -3.894849 -4.821581 -1.057671 -1.146677 6.927706 -5.724266 0.063348 -3.856937 -0.368578 2.104688 0.000000 0.000000 0.000000 11.569251 8.059287 -2.528010 -88.931667 -18.810132 20.394835 -178.582816 -51.628180 179.970703 1.447298 -7.804442 -0.103337 0.070982 1.210542 -0.000000 0.000000 0.000000 0.000000 0.000000 0.000000 0.000000 1.343387 -3.153261 -4.348574 81.377094 30.605413 22.144120 -179.594328 65.388671 179.900720 -7.020408 10.302802 -0.693076 0.038222 -0.923234 -0.000000 0.000000 0.000000 0.000000 0.000000 0.000000 0.000000 
3.207923 17.201521 0.857807 -168.813327 -87.769575 -178.003170 0.434054 -1.033606 -5.422795 -0.185830 -1.128628 -3.938737 -4.610975 -0.985348 -1.324754 6.702507 -5.288414 0.366269 -3.842447 -0.370609 2.187531 0.000000 0.000000 0.000000 11.323709 7.785922 -2.479848 -88.920011 -18.881733 20.619698 -178.642984 -51.833095 179.969892 1.450413 -7.802930 -0.103364 0.074863 1.209248 -0.000000 0.000000 0.000000 0.000000 0.000000 0.000000 0.000000 1.482469 -2.649386 -4.313057 80.229057 32.256114 21.402697 -179.625035 66.895575 179.905407 -6.808325 9.515735 -0.621847 0.029247 -0.889340 -0.000000 0.000000 0.000000 0.000000 0.000000 0.000000 0.000000 
3.213134 17.202092 0.856162 -168.460155 -88.090376 -178.459504 0.316553 -0.960813 -5.438748 -0.179976 -1.038286 -3.983248 -4.385683 -0.903219 -1.505647 6.457277 -4.832545 0.669009 -3.824131 -0.372478 2.270434 0.000000 0.000000 0.000000 11.064365 7.494625 -2.438112 -88.902181 -18.966830 20.852118 -178.711119 -52.061018 179.968840 1.467161 -7.793997 -0.104404 0.078494 1.207071 -0.000000 0.000000 0.000000 0.000000 0.000000 0.000000 0.000000 1.629214 -2.117421 -4.252269 78.932628 34.058762 20.615215 -179.646868 68.597106 179.910263 -6.583002 8.677347 -0.549621 0.019198 -0.854382 -0.000000 0.000000 0.000000 0.000000 0.000000 0.000000 0.000000 
3.219101 17.202701 0.854423 -168.129903 -88.402439 -178.898971 0.199986 -0.879252 -5.448658 -0.172509 -0.938652 -4.028082 -4.148711 -0.811215 -1.690496 6.192653 -4.353685 0.968852 -3.801292 -0.374130 2.352658 0.000000 0.000000 0.000000 10.793832 7.182925 -2.404501 -88.878579 -19.062616 21.090402 -178.788552 -52.310227 179.967489 1.501153 -7.777830 -0.106755 0.081795 1.203929 -0.000000 0.000000 0.000000 0.000000 0.000000 0.000000 0.000000 1.775707 -1.556843 -4.163124 77.478180 35.998776 19.766614 -179.657624 70.504459 179.915054 -6.357721 7.809596 -0.479292 0.008148 -0.819405 -0.000000 0.000000 0.000000 0.000000 0.000000 0.000000 0.000000 
3.225733 17.203372 0.852558 -167.910341 -88.705192 -179.230227 0.087189 -0.788917 -5.450662 -0.163447 -0.830096 -4.072753 -3.904671 -0.709575 -1.878816 5.909729 -3.849898 1.261351 -3.772902 -0.375465 2.432982 0.000000 0.000000 0.000000 10.512911 6.856792 -2.380529 -88.848644 -19.172507 21.338138 -178.874392 -52.580930 179.965818 1.554618 -7.755728 -0.110518 0.084591 1.199820 -0.000000 0.000000 0.000000 0.000000 0.000000 0.000000 0.000000 1.910536 -0.969457 -4.045446 75.863181 38.056090 18.839706 -179.657440 72.623629 179.919597 -6.143237 6.933939 -0.413257 -0.003888 -0.785456 -0.000000 0.000000 0.000000 0.000000 0.000000 0.000000 0.000000 
3.233120 17.204170 0.850616 -167.997543 -89.000357 -179.255749 -0.019318 -0.690690 -5.443681 -0.152742 -0.713821 -4.117812 -3.657566 -0.599529 -2.074081 5.609288 -3.318198 1.544544 -3.738208 -0.376440 2.510934 0.000000 0.000000 0.000000 10.225036 6.511062 -2.367083 -88.812864 -19.287872 21.590984 -178.969675 -52.865500 179.963824 1.626627 -7.729761 -0.115693 0.087054 1.194772 -0.000000 0.000000 0.000000 0.000000 0.000000 0.000000 0.000000 2.020371 -0.356567 -3.900046 74.088702 40.201851 17.813967 -179.649428 74.960862 179.923750 -5.949384 6.069225 -0.352610 -0.016861 -0.753488 -0.000000 0.000000 0.000000 0.000000 0.000000 0.000000 0.000000 
3.241267 17.205066 0.848499 -113.011926 -89.181734 125.648096 0.404442 -0.605715 -5.414196 0.023020 -0.674823 -4.156571 -3.422800 -0.574138 -2.277033 5.311876 -2.768169 1.814433 -3.689809 -0.376518 2.584929 0.000000 0.000000 0.000000 9.901763 6.132788 -2.351389 -88.806382 -19.455880 21.891841 -179.039067 -53.182111 179.962006 1.716891 -7.702654 -0.122502 0.086560 1.189571 -0.000000 0.000000 0.000000 0.000000 0.000000 0.000000 0.000000 2.071338 0.215447 -3.748365 72.139056 42.398399 16.655468 -179.630632 77.524509 179.927292 -5.779050 5.233373 -0.298096 -0.032073 -0.724072 -0.000000 0.000000 0.000000 0.000000 0.000000 0.000000 0.000000 
3.249670 17.205826 0.848863 -2.130986 -89.316333 14.679737 -0.144066 -0.768849 -5.385373 -0.074642 -0.753922 -4.202589 -3.153928 -0.653895 -2.467093 4.954043 -2.207730 2.047287 -3.636351 -0.376246 2.652391 0.000000 0.000000 0.000000 9.568078 5.712748 -2.359818 -88.773048 -19.674955 22.213372 -179.128012 -53.533829 179.959714 1.819945 -7.676524 -0.130154 0.086993 1.184988 -0.000000 0.000000 0.000000 0.000000 0.000000 0.000000 0.000000 2.048884 0.725111 -3.588202 70.092466 44.612874 15.368409 -179.630735 80.294313 179.930675 -5.634545 4.438031 -0.249626 -0.047198 -0.696971 -0.000000 0.000000 0.000000 0.000000 0.000000 0.000000 0.000000 
3.258892 17.207085 0.846419 0.154061 -89.115789 12.293904 -0.165199 -0.623575 -5.332076 -0.057544 -0.599410 -4.244200 -2.932420 -0.501644 -2.679572 4.602032 -1.622812 2.267687 -3.576454 -0.375409 2.713758 0.000000 0.000000 0.000000 9.246731 5.402204 -2.380422 -88.716133 -19.865833 22.526981 -179.229465 -53.851593 179.957196 1.930029 -7.657370 -0.138458 0.087878 1.178027 -0.000000 0.000000 0.000000 0.000000 0.000000 0.000000 0.000000 1.990849 1.372252 -3.401702 67.943453 46.868884 13.968277 -179.653269 83.332457 179.933653 -5.508995 3.690754 -0.206731 -0.062575 -0.674926 -0.000000 0.000000 0.000000 0.000000 0.000000 0.000000 0.000000 
3.268699 17.208484 0.843695 2.129181 -88.914030 10.221675 -0.172262 -0.471600 -5.254212 -0.039477 -0.439917 -4.281583 -2.727553 -0.343893 -2.893027 4.233494 -1.045970 2.453681 -3.506803 -0.373777 2.765903 0.000000 0.000000 0.000000 8.905222 5.136317 -2.411752 -88.651387 -20.117571 22.885200 -179.319529 -54.183461 179.954767 2.042246 -7.647057 -0.147073 0.087791 1.170927 -0.000000 0.000000 0.000000 0.000000 0.000000 0.000000 0.000000 1.851762 1.997657 -3.221792 65.721186 49.123360 12.437518 -179.709350 86.632518 179.936276 -5.406289 3.001242 -0.169218 -0.078379 -0.656728 -0.000000 0.000000 0.000000 0.000000 0.000000 0.000000 0.000000 
3.278730 17.210090 0.840750 3.764964 -88.707847 8.503105 -0.163456 -0.313239 -5.161417 -0.020246 -0.275919 -4.319359 -2.538576 -0.181378 -3.118411 3.848763 -0.476416 2.611851 -3.427512 -0.371473 2.810986 0.000000 0.000000 0.000000 8.554598 4.883998 -2.451675 -88.586439 -20.391607 23.265802 -179.402432 -54.505358 179.952523 2.144966 -7.646520 -0.155099 0.087696 1.163751 -0.000000 0.000000 0.000000 0.000000 0.000000 0.000000 0.000000 1.618665 2.604318 -3.054308 63.446769 51.337623 10.768028 0.187278 89.798179 -0.061289 -5.309881 2.375877 -0.136486 -0.094455 -0.642399 -0.000000 0.000000 0.000000 0.000000 0.000000 0.000000 0.000000 
